<svg width="32" height="32" viewBox="0 0 32 32" fill="none" xmlns="http://www.w3.org/2000/svg">
<path d="M1 31.1122H26.4682" stroke="white" stroke-linecap="round" stroke-linejoin="round"/>
<path d="M14.8918 23.0087L7.9459 24.2589L9.10354 17.2204L24.6854 1.68486C24.9007 1.46785 25.1567 1.29561 25.4389 1.17806C25.721 1.06052 26.0236 1 26.3293 1C26.6349 1 26.9375 1.06052 27.2197 1.17806C27.5018 1.29561 27.7579 1.46785 27.9731 1.68486L30.4273 4.13906C30.6443 4.3543 30.8166 4.61037 30.9341 4.89251C31.0517 5.17465 31.1122 5.47727 31.1122 5.78292C31.1122 6.08856 31.0517 6.39118 30.9341 6.67332C30.8166 6.95546 30.6443 7.21153 30.4273 7.42677L14.8918 23.0087Z" stroke="white" stroke-linecap="round" stroke-linejoin="round"/>
</svg>
