<svg width="17" height="31" viewBox="0 0 17 31" fill="none" xmlns="http://www.w3.org/2000/svg">
<path d="M10.7916 8.84616C10.7916 6.64086 11.8943 6.64086 12.9969 6.64086H14.3201C14.541 6.64382 14.7603 6.6025 14.965 6.51932C15.1697 6.43614 15.3556 6.3128 15.5119 6.15657C15.6681 6.00034 15.7914 5.81439 15.8746 5.60971C15.9578 5.40502 15.9991 5.18575 15.9962 4.96483V2.89184C15.9962 2.66987 15.9521 2.45011 15.8665 2.24532C15.7809 2.04052 15.6555 1.85477 15.4975 1.69884C15.3395 1.54292 15.1521 1.41993 14.9462 1.33701C14.7403 1.25409 14.52 1.21289 14.2981 1.21581L11.1665 1.17171C10.2547 1.13644 9.34609 1.29944 8.50339 1.64948C7.66068 1.99951 6.90397 2.52823 6.28546 3.19914C5.66696 3.87006 5.20141 4.66719 4.92093 5.53553C4.64045 6.40386 4.55173 7.32272 4.6609 8.22868V11.4264H2.91871C2.47419 11.4264 2.04789 11.6029 1.73357 11.9173C1.41926 12.2316 1.24268 12.6579 1.24268 13.1024V15.1754C1.24268 15.6199 1.41926 16.0462 1.73357 16.3605C2.04789 16.6748 2.47419 16.8514 2.91871 16.8514H4.6609V28.6939C4.6609 28.9863 4.77707 29.2668 4.98385 29.4736C5.19064 29.6804 5.47111 29.7965 5.76355 29.7965H9.75515C10.036 29.7797 10.2997 29.6561 10.4924 29.4511C10.6851 29.2461 10.7921 28.9752 10.7916 28.6939V16.8514H12.7323C13.1768 16.8514 13.6031 16.6748 13.9174 16.3605C14.2318 16.0462 14.4083 15.6199 14.4083 15.1754V13.1024C14.4083 12.6579 14.2318 12.2316 13.9174 11.9173C13.6031 11.6029 13.1768 11.4264 12.7323 11.4264H10.7916V8.84616Z" stroke="white" stroke-width="1.5" stroke-linecap="round" stroke-linejoin="round"/>
</svg>
