<svg width="17" height="31" viewBox="0 0 17 31" fill="none" xmlns="http://www.w3.org/2000/svg">
<path d="M10.8493 8.98044C10.8493 6.77513 11.9519 6.77513 13.0546 6.77513H14.3777C14.5987 6.7781 14.8179 6.73677 15.0226 6.6536C15.2273 6.57042 15.4133 6.44707 15.5695 6.29084C15.7257 6.13462 15.8491 5.94867 15.9322 5.74399C16.0154 5.5393 16.0567 5.32002 16.0538 5.0991V3.02612C16.0538 2.80415 16.0097 2.58439 15.9241 2.37959C15.8385 2.1748 15.7131 1.98905 15.5551 1.83312C15.3971 1.6772 15.2097 1.5542 15.0039 1.47128C14.798 1.38836 14.5776 1.34717 14.3557 1.35009L11.2242 1.30598C10.3123 1.27071 9.40371 1.43372 8.561 1.78375C7.7183 2.13378 6.96158 2.66251 6.34308 3.33342C5.72458 4.00434 5.25903 4.80147 4.97855 5.66981C4.69807 6.53814 4.60935 7.457 4.71851 8.36295V11.5606H2.97632C2.53181 11.5606 2.10551 11.7372 1.79119 12.0515C1.47687 12.3659 1.30029 12.7922 1.30029 13.2367V15.3097C1.30029 15.7542 1.47687 16.1805 1.79119 16.4948C2.10551 16.8091 2.53181 16.9857 2.97632 16.9857H4.71851V28.8282C4.71851 29.1206 4.83468 29.4011 5.04147 29.6079C5.24826 29.8146 5.52872 29.9308 5.82116 29.9308H9.81276C10.0936 29.9139 10.3573 29.7904 10.55 29.5854C10.7427 29.3804 10.8498 29.1095 10.8493 28.8282V16.9857H12.7899C13.2344 16.9857 13.6607 16.8091 13.9751 16.4948C14.2894 16.1805 14.466 15.7542 14.466 15.3097V13.2367C14.466 12.7922 14.2894 12.3659 13.9751 12.0515C13.6607 11.7372 13.2344 11.5606 12.7899 11.5606H10.8493V8.98044Z" stroke="#233942" stroke-width="1.5" stroke-linecap="round" stroke-linejoin="round"/>
</svg>
