<svg width="28" height="31" viewBox="0 0 28 31" fill="none" xmlns="http://www.w3.org/2000/svg">
<path d="M23.8024 12.8926H18.3111C18.1616 12.8925 18.0135 12.9223 17.8756 12.9802C17.7377 13.0381 17.6127 13.123 17.508 13.2297C17.4032 13.3365 17.3208 13.4631 17.2656 13.6021C17.2104 13.7412 17.1835 13.8898 17.1864 14.0393V17.1488C17.1864 17.4471 17.3049 17.7332 17.5159 17.9441C17.7268 18.155 18.0129 18.2735 18.3111 18.2735H21.156C21.1719 19.1259 21.008 19.9721 20.6748 20.7568C20.3417 21.5416 19.8468 22.2473 19.2225 22.8279C18.5982 23.4084 17.8585 23.8509 17.0517 24.1263C16.2449 24.4017 15.3891 24.504 14.5401 24.4263C9.6002 24.4263 7.21847 20.2362 7.21847 15.4728C7.21847 10.7093 9.77662 6.51924 14.5401 6.51924C16.6431 6.44946 18.7037 7.12074 20.3621 8.4158C20.4946 8.50255 20.6446 8.5591 20.8015 8.58144C20.9583 8.60378 21.1181 8.59136 21.2696 8.54507C21.4211 8.49878 21.5606 8.41975 21.6781 8.31357C21.7957 8.20739 21.8885 8.07666 21.9499 7.93064L23.3392 4.755C23.4535 4.52094 23.483 4.25447 23.4227 4.00109C23.3623 3.7477 23.2159 3.52312 23.0084 3.36566C20.4796 1.85348 17.5739 1.08884 14.6283 1.16036C6.60099 1.1383 1.13184 7.37931 1.13184 15.4728C1.13184 23.5662 6.62304 29.8072 14.5401 29.8072C22.4571 29.8072 27.2426 24.1617 27.2426 16.5754C27.2426 14.1496 26.2723 12.8926 23.8024 12.8926Z" stroke="white" stroke-width="1.5" stroke-linecap="round" stroke-linejoin="round"/>
</svg>
