<svg width="29" height="32" viewBox="0 0 29 32" fill="none" xmlns="http://www.w3.org/2000/svg">
<path d="M23.8251 13.3867H18.3339C18.1843 13.3867 18.0362 13.4165 17.8983 13.4744C17.7604 13.5323 17.6354 13.6171 17.5307 13.7239C17.4259 13.8307 17.3436 13.9573 17.2883 14.0963C17.2331 14.2353 17.2062 14.3839 17.2091 14.5335V17.6429C17.2091 17.9412 17.3276 18.2273 17.5386 18.4382C17.7495 18.6492 18.0356 18.7677 18.3339 18.7677H21.1787C21.1946 19.62 21.0307 20.4662 20.6975 21.251C20.3644 22.0357 19.8695 22.7414 19.2452 23.322C18.6209 23.9026 17.8813 24.345 17.0744 24.6205C16.2676 24.8959 15.4118 24.9981 14.5628 24.9204C9.62291 24.9204 7.24118 20.7304 7.24118 15.9669C7.24118 11.2035 9.79933 7.01338 14.5628 7.01338C16.6658 6.94361 18.7264 7.61488 20.3848 8.90994C20.5173 8.99669 20.6673 9.05324 20.8242 9.07558C20.981 9.09792 21.1408 9.0855 21.2923 9.03921C21.4438 8.99292 21.5833 8.91389 21.7008 8.80771C21.8184 8.70153 21.9112 8.5708 21.9726 8.42478L23.3619 5.24914C23.4762 5.01508 23.5057 4.74861 23.4454 4.49523C23.385 4.24184 23.2386 4.01726 23.0311 3.8598C20.5023 2.34762 17.5966 1.58298 14.651 1.6545C6.62369 1.63244 1.15454 7.87345 1.15454 15.9669C1.15454 24.0604 6.64575 30.3014 14.5628 30.3014C22.4798 30.3014 27.2653 24.6558 27.2653 17.0696C27.2653 14.6437 26.295 13.3867 23.8251 13.3867Z" stroke="#233942" stroke-width="1.5" stroke-linecap="round" stroke-linejoin="round"/>
</svg>
