<svg width="29" height="31" viewBox="0 0 29 31" fill="none" xmlns="http://www.w3.org/2000/svg">
<path d="M6.75218 3.82279C6.75817 4.59316 6.46082 5.33496 5.92438 5.88791C5.38794 6.44085 4.65549 6.76054 3.88528 6.77789C3.11668 6.74969 2.38828 6.42729 1.85062 5.87732C1.31296 5.32735 1.00713 4.59184 0.996338 3.82279C1.02975 3.07351 1.34682 2.36496 1.88328 1.84079C2.41973 1.31662 3.13543 1.01605 3.88528 1C4.63295 1.01635 5.34613 1.31767 5.87902 1.84236C6.4119 2.36704 6.72424 3.07547 6.75218 3.82279ZM1.30508 12.0265C1.30508 10.3284 2.38568 10.5931 3.88528 10.5931C5.38489 10.5931 6.44344 10.3284 6.44344 12.0265V28.5663C6.44344 30.2864 5.36284 29.9336 3.88528 29.9336C2.40773 29.9336 1.30508 30.2864 1.30508 28.5663V12.0265Z" stroke="white" stroke-width="1.5" stroke-linecap="round" stroke-linejoin="round"/>
<path d="M10.8981 12.0266C10.8981 11.0783 11.2509 10.7254 11.8022 10.6152C12.3536 10.5049 14.2501 10.6152 14.9117 10.6152C15.5733 10.6152 15.8379 11.6958 15.8159 12.5117C16.3818 11.7522 17.1332 11.1506 17.9981 10.7645C18.863 10.3784 19.8125 10.2207 20.7558 10.3064C21.6821 10.2498 22.6099 10.3887 23.479 10.714C24.3481 11.0394 25.139 11.544 25.8004 12.1949C26.4618 12.8459 26.9788 13.6288 27.3179 14.4926C27.657 15.3564 27.8106 16.282 27.7686 17.209V28.5002C27.7686 30.2203 26.7101 29.8675 25.2105 29.8675C23.7109 29.8675 22.6523 30.2203 22.6523 28.5002V19.679C22.6911 19.225 22.6317 18.7679 22.4782 18.3389C22.3247 17.9099 22.0807 17.519 21.7627 17.1926C21.4447 16.8663 21.0602 16.6122 20.6353 16.4476C20.2105 16.283 19.7551 16.2117 19.3003 16.2387C18.8475 16.2272 18.3975 16.312 17.98 16.4875C17.5625 16.663 17.187 16.9252 16.8785 17.2567C16.5699 17.5882 16.3353 17.9814 16.1901 18.4104C16.0449 18.8394 15.9926 19.2944 16.0364 19.7451V28.5663C16.0364 30.2865 14.9558 29.9336 13.4562 29.9336C11.9566 29.9336 10.8981 30.2865 10.8981 28.5663V12.0266Z" stroke="white" stroke-width="1.5" stroke-linecap="round" stroke-linejoin="round"/>
</svg>
