<svg width="29" height="32" viewBox="0 0 29 32" fill="none" xmlns="http://www.w3.org/2000/svg">
<path d="M6.91038 4.13968C6.91637 4.91006 6.61902 5.65186 6.08258 6.2048C5.54614 6.75775 4.81369 7.07743 4.04349 7.09479C3.27488 7.06659 2.54648 6.74419 2.00882 6.19421C1.47116 5.64424 1.16533 4.90873 1.15454 4.13968C1.18795 3.3904 1.50502 2.68186 2.04148 2.15769C2.57794 1.63352 3.29363 1.33294 4.04349 1.31689C4.79115 1.33324 5.50433 1.63456 6.03722 2.15925C6.57011 2.68394 6.88245 3.39236 6.91038 4.13968ZM1.46328 12.3434C1.46328 10.6453 2.54388 10.91 4.04349 10.91C5.54309 10.91 6.60164 10.6453 6.60164 12.3434V28.8832C6.60164 30.6033 5.52104 30.2505 4.04349 30.2505C2.56593 30.2505 1.46328 30.6033 1.46328 28.8832V12.3434Z" stroke="#233942" stroke-width="1.5" stroke-linecap="round" stroke-linejoin="round"/>
<path d="M11.0563 12.3435C11.0563 11.3952 11.4091 11.0423 11.9604 10.9321C12.5118 10.8218 14.4083 10.9321 15.0699 10.9321C15.7315 10.9321 15.9962 12.0127 15.9741 12.8286C16.54 12.0691 17.2914 11.4675 18.1563 11.0814C19.0212 10.6953 19.9707 10.5376 20.914 10.6233C21.8403 10.5667 22.7681 10.7056 23.6372 11.0309C24.5063 11.3563 25.2973 11.8608 25.9586 12.5118C26.62 13.1628 27.137 13.9457 27.4761 14.8095C27.8152 15.6733 27.9688 16.5989 27.9268 17.5259V28.8171C27.9268 30.5372 26.8683 30.1844 25.3687 30.1844C23.8691 30.1844 22.8105 30.5372 22.8105 28.8171V19.9959C22.8493 19.5419 22.7899 19.0848 22.6364 18.6558C22.4829 18.2268 22.2389 17.8358 21.9209 17.5095C21.6029 17.1831 21.2184 16.929 20.7935 16.7645C20.3687 16.5999 19.9133 16.5286 19.4585 16.5556C19.0057 16.5441 18.5557 16.6289 18.1382 16.8044C17.7207 16.9799 17.3452 17.2421 17.0367 17.5736C16.7281 17.9051 16.4935 18.2983 16.3483 18.7273C16.2031 19.1563 16.1508 19.6113 16.1946 20.062V28.8832C16.1946 30.6034 15.114 30.2505 13.6144 30.2505C12.1148 30.2505 11.0563 30.6034 11.0563 28.8832V12.3435Z" stroke="#233942" stroke-width="1.5" stroke-linecap="round" stroke-linejoin="round"/>
</svg>
