<svg width="30" height="27" viewBox="0 0 30 27" fill="none" xmlns="http://www.w3.org/2000/svg">
<path d="M8.35835 18.9314C6.78362 20.1682 4.97618 21.0757 3.04356 21.5998C2.8307 21.677 2.64678 21.818 2.51681 22.0034C2.38683 22.1889 2.31711 22.4098 2.31711 22.6363C2.31711 22.8627 2.38683 23.0837 2.51681 23.2691C2.64678 23.4546 2.8307 23.5955 3.04356 23.6728C18.3043 29.9358 28.0076 20.2545 26.53 9.51472L29 4.39841H26.1331C22.5605 0.00986056 13.0777 0.230391 14.6435 9.58088C14.6435 9.58088 9.57126 10.4851 3.08767 4.11172C2.93769 3.96365 2.74842 3.86167 2.54227 3.81784C2.33612 3.77402 2.12173 3.79019 1.92449 3.86444C1.72724 3.9387 1.55541 4.06793 1.42935 4.23682C1.30328 4.40572 1.22826 4.60721 1.21316 4.81742C0.527605 7.63547 0.870688 10.6057 2.18063 13.1932C3.49058 15.7808 5.68131 17.8156 8.35835 18.9314V18.9314Z" stroke="#233942" stroke-width="1.5" stroke-linecap="round" stroke-linejoin="round"/>
</svg>
