<svg width="30" height="27" viewBox="0 0 30 27" fill="none" xmlns="http://www.w3.org/2000/svg">
<path d="M8.49018 18.7712C6.91546 20.0081 5.10801 20.9156 3.1754 21.4396C2.96253 21.5169 2.77862 21.6578 2.64864 21.8433C2.51867 22.0287 2.44895 22.2497 2.44895 22.4761C2.44895 22.7026 2.51867 22.9235 2.64864 23.109C2.77862 23.2944 2.96253 23.4353 3.1754 23.5126C18.4361 29.7757 28.1394 20.0944 26.6619 9.35456L29.1318 4.23826H26.2649C22.6923 -0.150296 13.2095 0.0702352 14.7753 9.42072C14.7753 9.42072 9.7031 10.3249 3.21951 3.95157C3.06953 3.8035 2.88026 3.70151 2.67411 3.65769C2.46796 3.61386 2.25356 3.63003 2.05632 3.70429C1.85908 3.77854 1.68725 3.90777 1.56118 4.07667C1.43512 4.24556 1.36009 4.44705 1.345 4.65727C0.659441 7.47531 1.00252 10.4455 2.31247 13.0331C3.62242 15.6206 5.81315 17.6555 8.49018 18.7712V18.7712Z" stroke="white" stroke-width="1.5" stroke-linecap="round" stroke-linejoin="round"/>
</svg>
